<?xml version="1.0" encoding="iso-8859-1"?>
<!-- Generator: Adobe Illustrator 19.0.0, SVG Export Plug-In . SVG Version: 6.00 Build 0)  -->
<svg version="1.1" id="Layer_1" xmlns="http://www.w3.org/2000/svg" xmlns:xlink="http://www.w3.org/1999/xlink" x="0px" y="0px"
	 viewBox="0 0 471.996 471.996" style="enable-background:new 0 0 471.996 471.996;" xml:space="preserve">
<g id="XMLID_1142_">
	<g id="XMLID_1045_">
		<rect id="XMLID_1380_" x="15" y="52.11" style="fill:#AB2300;" width="94.869" height="370.333"/>
	</g>
	<rect id="XMLID_1047_" x="62.434" y="52.11" style="fill:#891C00;" width="47.434" height="370.333"/>
	<g id="XMLID_1048_">
		<rect id="XMLID_1049_" x="15" y="360.645" style="fill:#FFFFFF;" width="94.869" height="30"/>
	</g>
	<g id="XMLID_1050_">
		<path id="XMLID_1051_" style="fill:#AB2300;" d="M109.869,437.444H15c-8.284,0-15-6.716-15-15V52.111c0-8.284,6.716-15,15-15
			h94.869c8.284,0,15,6.716,15,15v370.333C124.869,430.728,118.153,437.444,109.869,437.444z M30,407.444h64.869V67.111H30V407.444z
			"/>
	</g>
	<path id="XMLID_1055_" style="fill:#891C00;" d="M109.869,37.111H62.434v30h32.434v340.333H62.434v30h47.434
		c8.284,0,15-6.716,15-15V52.111C124.869,43.827,118.153,37.111,109.869,37.111z"/>
	<g id="XMLID_1056_">
		<rect id="XMLID_926_" x="154.781" y="49.552" style="fill:#610012;" width="94.868" height="370.333"/>
	</g>
	<rect id="XMLID_1061_" x="202.215" y="49.552" style="fill:#50000F;" width="47.434" height="370.333"/>
	<g id="XMLID_1063_">
		<rect id="XMLID_1064_" x="154.781" y="358.086" style="fill:#FFFFFF;" width="94.869" height="30"/>
	</g>
	<g id="XMLID_1065_">
		<path id="XMLID_1068_" style="fill:#610012;" d="M249.65,434.885h-94.869c-8.284,0-15-6.716-15-15V49.552c0-8.284,6.716-15,15-15
			h94.869c8.284,0,15,6.716,15,15v370.333C264.65,428.17,257.934,434.885,249.65,434.885z M169.781,404.885h64.869V64.552h-64.869
			V404.885z"/>
	</g>
	<path id="XMLID_1076_" style="fill:#50000F;" d="M249.65,34.552h-47.434v30h32.434v340.333h-32.434v30h47.434
		c8.284,0,15-6.716,15-15V49.552C264.65,41.268,257.934,34.552,249.65,34.552z"/>
	<g id="XMLID_1078_">
		
			<rect id="XMLID_923_" x="325.092" y="102.564" transform="matrix(-0.9688 0.248 -0.248 -0.9688 797.3264 414.9992)" style="fill:#610012;" width="94.863" height="310.315"/>
	</g>
	
		<rect id="XMLID_1352_" x="240.375" y="228.151" transform="matrix(0.248 0.9688 -0.9688 0.248 541.4318 -193.7749)" style="fill:#50000F;" width="310.315" height="47.431"/>
	<g id="XMLID_1079_">
		
			<rect id="XMLID_1351_" x="351.966" y="347.699" transform="matrix(-0.9688 0.248 -0.248 -0.9688 876.2717 615.0084)" style="fill:#FFFFFF;" width="94.864" height="29.998"/>
	</g>
	<g id="XMLID_1094_">
		<path id="XMLID_1345_" style="fill:#610012;" d="M460.713,410.802l-91.904,23.531c-8.025,2.055-16.197-2.785-18.252-10.811
			l-76.975-300.635c-2.055-8.025,2.785-16.197,10.811-18.252l91.904-23.531c8.025-2.055,16.197,2.785,18.252,10.811l76.975,300.635
			C473.579,400.575,468.738,408.747,460.713,410.802z M375.899,401.55l62.842-16.09l-69.534-271.572l-62.841,16.09L375.899,401.55z"
			/>
	</g>
	<path id="XMLID_1342_" style="fill:#50000F;" d="M376.297,81.105L330.345,92.87l7.441,29.063l31.421-8.045l69.534,271.572
		l-31.421,8.045l7.441,29.063l45.952-11.766c8.025-2.055,12.866-10.227,10.811-18.252L394.548,91.915
		C392.494,83.89,384.322,79.05,376.297,81.105z"/>
	<rect id="XMLID_1354_" x="34.028" y="95.636" style="fill:#96C8EF;" width="56.577" height="107.239"/>
	<rect id="XMLID_1356_" x="173.927" y="95.636" style="fill:#96C8EF;" width="56.577" height="107.239"/>
	
		<rect id="XMLID_1143_" x="326.219" y="134.334" transform="matrix(-0.9669 0.2553 -0.2553 -0.9669 745.2525 279.1802)" style="fill:#96C8EF;" width="56.579" height="107.243"/>
</g>
<g>
</g>
<g>
</g>
<g>
</g>
<g>
</g>
<g>
</g>
<g>
</g>
<g>
</g>
<g>
</g>
<g>
</g>
<g>
</g>
<g>
</g>
<g>
</g>
<g>
</g>
<g>
</g>
<g>
</g>
</svg>
