<?xml version="1.0" encoding="iso-8859-1"?>
<!-- Generator: Adobe Illustrator 19.0.0, SVG Export Plug-In . SVG Version: 6.00 Build 0)  -->
<svg version="1.1" id="Layer_1" xmlns="http://www.w3.org/2000/svg" xmlns:xlink="http://www.w3.org/1999/xlink" x="0px" y="0px"
	 viewBox="0 0 470.137 470.137" style="enable-background:new 0 0 470.137 470.137;" xml:space="preserve">
<g id="XMLID_1101_">
	<g id="XMLID_1070_">
		<path id="XMLID_916_" style="fill:#5EAC24;" d="M303.693,198.435H166.442c-8.284,0-15-6.716-15-15v-81.511
			c0-46.111,37.515-83.626,83.626-83.626s83.625,37.514,83.625,83.626v81.511C318.693,191.719,311.978,198.435,303.693,198.435z
			 M181.442,168.435h107.251v-66.511c0-29.569-24.056-53.626-53.625-53.626s-53.626,24.056-53.626,53.626L181.442,168.435
			L181.442,168.435z"/>
	</g>
	<path id="XMLID_1069_" style="fill:#4E901E;" d="M235.068,18.299L235.068,18.299l-0.001,30c0,0,0,0,0.001,0
		c29.569,0,53.625,24.056,53.625,53.626v66.511h-53.626v30h68.626c8.284,0,15-6.716,15-15v-81.511
		C318.693,55.813,281.18,18.299,235.068,18.299z"/>
	<path id="XMLID_1080_" style="fill:#5EAC24;" d="M330.867,254.809H139.269c-27.838,0-52.478-13.889-67.403-35.087v172.803
		c0,32.706,26.608,59.314,59.314,59.314h207.775c32.706,0,59.315-26.608,59.315-59.314V219.721
		C383.345,240.919,358.705,254.809,330.867,254.809z"/>
	<g id="XMLID_1077_">
		<path id="XMLID_920_" style="fill:#7ED63E;" d="M316.835,342.144H153.302c-8.284,0-15-6.716-15-15s6.716-15,15-15h163.533
			c8.284,0,15,6.716,15,15S325.119,342.144,316.835,342.144z"/>
	</g>
	<path id="XMLID_1075_" style="fill:#47821C;" d="M330.867,254.809h-95.799v197.03h103.888c32.706,0,59.315-26.608,59.315-59.314
		V219.721C383.345,240.919,358.705,254.809,330.867,254.809z"/>
	<path id="XMLID_1074_" style="fill:#5EAC24;" d="M316.835,312.144h-81.767v30h81.767c8.284,0,15-6.716,15-15
		S325.119,312.144,316.835,312.144z"/>
	<g id="XMLID_1130_">
		<path id="XMLID_1131_" style="fill:#7ED63E;" d="M316.835,397.828H153.302c-8.284,0-15-6.716-15-15s6.716-15,15-15h163.533
			c8.284,0,15,6.716,15,15S325.119,397.828,316.835,397.828z"/>
	</g>
	<path id="XMLID_1129_" style="fill:#5EAC24;" d="M316.835,367.828h-81.767v30h81.767c8.284,0,15-6.716,15-15
		S325.119,367.828,316.835,367.828z"/>
	<g id="XMLID_1071_">
		<path id="XMLID_921_" style="fill:#7ED63E;" d="M87.165,257.678H50.186C22.513,257.678,0,280.192,0,307.865v60.449
			C0,395.987,22.513,418.5,50.186,418.5h36.979c8.284,0,15-6.716,15-15V272.678C102.165,264.394,95.449,257.678,87.165,257.678z"/>
		<path id="XMLID_922_" style="fill:#5EAC24;" d="M419.951,257.678h-36.979c-8.284,0-15,6.716-15,15v130.821c0,8.284,6.716,15,15,15
			h36.979c27.673,0,50.186-22.513,50.186-50.186v-60.449C470.137,280.192,447.624,257.678,419.951,257.678z"/>
	</g>
	<path id="XMLID_1067_" style="fill:#7ED63E;" d="M407.845,137.778c0-10.238-8.299-18.537-18.537-18.537H80.828
		c-10.238,0-18.537,8.299-18.537,18.537v58.808c0,33.741,27.352,61.092,61.092,61.092h223.368c33.74,0,61.092-27.352,61.092-61.092
		v-58.808H407.845z"/>
	<path id="XMLID_1066_" style="fill:#5EAC24;" d="M389.308,119.241h-154.24v138.437h111.684c33.74,0,61.092-27.352,61.092-61.092
		v-58.808C407.845,127.54,399.546,119.241,389.308,119.241z"/>
</g>
<g>
</g>
<g>
</g>
<g>
</g>
<g>
</g>
<g>
</g>
<g>
</g>
<g>
</g>
<g>
</g>
<g>
</g>
<g>
</g>
<g>
</g>
<g>
</g>
<g>
</g>
<g>
</g>
<g>
</g>
</svg>
