<?xml version="1.0" encoding="iso-8859-1"?>
<!-- Generator: Adobe Illustrator 19.0.0, SVG Export Plug-In . SVG Version: 6.00 Build 0)  -->
<svg version="1.1" id="Layer_1" xmlns="http://www.w3.org/2000/svg" xmlns:xlink="http://www.w3.org/1999/xlink" x="0px" y="0px"
	 viewBox="0 0 467.229 467.229" style="enable-background:new 0 0 467.229 467.229;" xml:space="preserve">
<g id="XMLID_1041_">
	<g id="XMLID_1099_">
		<circle id="XMLID_1100_" style="fill:#96C8EF;" cx="260.929" cy="190.024" r="143.609"/>
		<g id="XMLID_1102_">
			<rect id="XMLID_1103_" x="225.133" y="372.2" style="fill:#787680;" width="30" height="80.029"/>
		</g>
		<g id="XMLID_1104_">
			<path id="XMLID_1105_" style="fill:#898890;" d="M324.103,409.036c-6.401,0-12.331-4.131-14.324-10.566l-4.704-15.192
				c-46.216,10.635-94.182,4.441-136.57-17.901c-46.839-24.686-81.26-66.137-96.923-116.713
				C39.248,144.258,97.883,33.011,202.29,0.677c7.912-2.454,16.314,1.978,18.767,9.891c2.45,7.913-1.979,16.316-9.892,18.766
				c-42.922,13.293-78.099,42.505-99.05,82.255c-20.951,39.749-25.168,85.278-11.876,128.2
				c22.325,72.089,88.995,118.465,160.787,118.471c16.448,0.002,33.151-2.431,49.667-7.545c3.799-1.178,7.91-0.797,11.432,1.059
				c3.52,1.855,6.158,5.032,7.335,8.832l8.978,28.99c2.45,7.914-1.979,16.315-9.892,18.767
				C327.068,408.818,325.573,409.036,324.103,409.036z"/>
		</g>
		<g id="XMLID_1106_">
			<path id="XMLID_1107_" style="fill:#898890;" d="M302.07,467.229H178.197c-8.284,0-15-6.716-15-15s6.716-15,15-15H302.07
				c8.284,0,15,6.716,15,15C317.07,460.514,310.354,467.229,302.07,467.229z"/>
		</g>
	</g>
	<path id="XMLID_1108_" style="fill:#1A6FB0;" d="M327.876,63.007c-21.356-11.256-44.253-16.593-66.825-16.592
		c-51.571,0.002-101.421,27.868-127.139,76.661c-36.974,70.149-10.08,156.99,60.069,193.964
		c21.356,11.256,44.253,16.592,66.825,16.592c51.571,0,101.421-27.869,127.139-76.661
		C424.919,186.822,398.025,99.981,327.876,63.007z M204.698,119.868c-4.083,5.508-7.991,11.317-11.688,17.401l-18.608-9.808
		C181.968,122.975,192.323,120.337,204.698,119.868z M281.193,183.748l18.462-35.027c10.14,6.297,19.415,13.256,27.548,20.677
		c-2.497,10.772-6.206,21.812-11.01,32.797L281.193,183.748z M313.681,122.109l9.72-18.442c4.402,7.548,7.023,17.813,7.515,30.016
		C325.479,129.658,319.726,125.789,313.681,122.109z M287.129,108.144c-6.497-2.92-13.048-5.511-19.601-7.759
		c10.699-6.759,20.896-10.468,29.496-11.013L287.129,108.144z M273.115,134.733l-18.462,35.026l-35.069-18.484
		c6.502-10.512,13.518-19.709,20.717-27.594C251.095,126.202,262.149,129.917,273.115,134.733z M240.665,196.299l-18.462,35.027
		c-10.14-6.298-19.415-13.257-27.548-20.678c2.497-10.771,6.206-21.813,11.011-32.797L240.665,196.299z M208.177,257.937
		l-9.72,18.442c-4.402-7.548-7.023-17.813-7.515-30.016C196.379,250.389,202.132,254.258,208.177,257.937z M234.729,271.902
		c6.498,2.92,13.048,5.511,19.602,7.76c-10.7,6.76-20.898,10.469-29.497,11.013L234.729,271.902z M248.743,245.313l18.461-35.026
		l35.069,18.484c-6.502,10.513-13.518,19.71-20.716,27.594C270.763,253.845,259.71,250.13,248.743,245.313z M328.849,242.778
		l18.607,9.808c-7.565,4.486-17.921,7.124-30.295,7.593C321.243,254.671,325.151,248.862,328.849,242.778z M342.791,216.215
		c2.906-6.492,5.474-13.027,7.708-19.56c6.623,10.479,10.316,20.563,10.904,29.37L342.791,216.215z M230.259,91.337
		c-7.339-1.016-14.541-1.546-21.512-1.546c-0.446,0-0.885,0.011-1.328,0.016c12.522-6.684,26.33-11.034,40.793-12.66
		C242.123,81.252,236.112,85.997,230.259,91.337z M179.067,163.831c-2.906,6.492-5.475,13.027-7.708,19.56
		c-6.623-10.479-10.316-20.563-10.904-29.37L179.067,163.831z M291.599,288.709c7.339,1.016,14.54,1.546,21.51,1.546
		c0.447,0,0.887-0.011,1.331-0.016c-12.523,6.686-26.333,11.035-40.796,12.661C279.735,298.796,285.746,294.05,291.599,288.709z
		 M369.425,156.423c2.16,6.975,3.628,14.052,4.426,21.151c-4.126-6.181-8.926-12.295-14.356-18.262
		c1.077-7.897,1.58-15.63,1.485-23.109C364.399,142.59,367.234,149.35,369.425,156.423z M152.433,223.624
		c-2.16-6.975-3.628-14.052-4.426-21.152c4.126,6.181,8.926,12.296,14.356,18.263c-1.077,7.897-1.58,15.63-1.485,23.11
		C157.459,237.457,154.623,230.698,152.433,223.624z"/>
</g>
<g>
</g>
<g>
</g>
<g>
</g>
<g>
</g>
<g>
</g>
<g>
</g>
<g>
</g>
<g>
</g>
<g>
</g>
<g>
</g>
<g>
</g>
<g>
</g>
<g>
</g>
<g>
</g>
<g>
</g>
</svg>
