<?xml version="1.0" encoding="iso-8859-1"?>
<!-- Generator: Adobe Illustrator 19.0.0, SVG Export Plug-In . SVG Version: 6.00 Build 0)  -->
<svg version="1.1" id="Layer_1" xmlns="http://www.w3.org/2000/svg" xmlns:xlink="http://www.w3.org/1999/xlink" x="0px" y="0px"
	 viewBox="0 0 479.832 479.832" style="enable-background:new 0 0 479.832 479.832;" xml:space="preserve">
<g id="XMLID_66_">
	<path id="XMLID_67_" style="fill:#DDB200;" d="M239.917,222.37c-70.982,0-128.731,57.748-128.731,128.73
		s57.748,128.731,128.731,128.731s128.73-57.749,128.73-128.731S310.899,222.37,239.917,222.37z"/>
	<path id="XMLID_68_" style="fill:#CCA400;" d="M239.917,222.37L239.917,222.37v257.462l0,0c70.983,0,128.73-57.749,128.73-128.731
		S310.899,222.37,239.917,222.37z"/>
	<path id="XMLID_69_" style="fill:#FFD422;" d="M315.484,331.689c-1.764-5.431-6.458-9.389-12.108-10.209l-34.555-5.021
		l-15.453-31.311c-2.527-5.12-7.742-8.361-13.451-8.361s-10.924,3.242-13.451,8.361l-15.453,31.311l-34.555,5.021
		c-5.65,0.82-10.344,4.778-12.109,10.209c-1.764,5.43-0.293,11.391,3.796,15.376l25.004,24.373l-5.903,34.414
		c-0.965,5.628,1.348,11.315,5.967,14.671c4.62,3.357,10.744,3.798,15.797,1.143l30.907-16.249l30.906,16.249
		c2.195,1.153,4.591,1.723,6.979,1.723c3.11,0,6.205-0.966,8.818-2.864c4.619-3.356,6.933-9.044,5.967-14.671l-5.902-34.415
		l25.004-24.373C315.778,343.079,317.248,337.118,315.484,331.689z"/>
	<path id="XMLID_70_" style="fill:#EEBF00;" d="M315.484,331.689c-1.764-5.431-6.458-9.389-12.108-10.209l-34.555-5.021
		l-15.453-31.311c-2.527-5.12-7.742-8.361-13.451-8.361v128.631l30.906,16.249c2.195,1.153,4.591,1.723,6.979,1.723
		c3.11,0,6.205-0.966,8.818-2.864c4.619-3.356,6.933-9.044,5.967-14.671l-5.902-34.415l25.004-24.373
		C315.778,343.079,317.248,337.118,315.484,331.689z"/>
	<path id="XMLID_93_" style="fill:#1A6FB0;" d="M346.688,0H133.145c-8.284,0-15,6.716-15,15v172.418
		c0,5.822,3.37,11.119,8.644,13.587l106.772,49.952c2.014,0.942,4.185,1.413,6.356,1.413s4.342-0.471,6.357-1.413l106.772-49.952
		c5.274-2.468,8.643-7.765,8.643-13.587V15C361.688,6.716,354.972,0,346.688,0z"/>
	<path id="XMLID_848_" style="fill:#165C92;" d="M346.688,0H239.917v252.37c2.171,0,4.342-0.471,6.357-1.413l106.772-49.952
		c5.274-2.468,8.643-7.765,8.643-13.587V15C361.688,6.716,354.972,0,346.688,0z"/>
</g>
<g>
</g>
<g>
</g>
<g>
</g>
<g>
</g>
<g>
</g>
<g>
</g>
<g>
</g>
<g>
</g>
<g>
</g>
<g>
</g>
<g>
</g>
<g>
</g>
<g>
</g>
<g>
</g>
<g>
</g>
</svg>
