<?xml version="1.0" encoding="iso-8859-1"?>
<!-- Generator: Adobe Illustrator 19.0.0, SVG Export Plug-In . SVG Version: 6.00 Build 0)  -->
<svg version="1.1" id="Layer_1" xmlns="http://www.w3.org/2000/svg" xmlns:xlink="http://www.w3.org/1999/xlink" x="0px" y="0px"
	 viewBox="0 0 451.962 451.962" style="enable-background:new 0 0 451.962 451.962;" xml:space="preserve">
<g id="XMLID_1699_">
	<g id="XMLID_488_">
		<path id="XMLID_489_" style="fill:#3E3D42;" d="M391.575,251.145c-8.284,0-15-6.716-15-15V48.988
			c0-10.47-8.518-18.988-18.988-18.988H201.272c-10.47,0-18.988,8.518-18.988,18.988v42.2c0,8.284-6.716,15-15,15s-15-6.716-15-15
			v-42.2C152.284,21.976,174.26,0,201.272,0h156.315c27.012,0,48.988,21.976,48.988,48.988v187.157
			C406.575,244.429,399.859,251.145,391.575,251.145z"/>
	</g>
	<path id="XMLID_490_" style="fill:#5A5A60;" d="M179.059,74.686h-23.55c-17.708,0-32.114,14.406-32.114,32.114v56.81h87.779V106.8
		C211.174,89.092,196.767,74.686,179.059,74.686z"/>
	<path id="XMLID_491_" style="fill:#898890;" d="M196.121,121.2h-57.673c-51.314,0-93.061,41.747-93.061,93.06v115.804
		c0,67.214,54.683,121.897,121.897,121.897s121.897-54.683,121.897-121.897V214.261C289.181,162.947,247.435,121.2,196.121,121.2z"
		/>
	<path id="XMLID_493_" style="fill:#787680;" d="M196.121,121.2h-28.837v330.762c67.214,0,121.897-54.683,121.897-121.897V214.261
		C289.181,162.947,247.435,121.2,196.121,121.2z"/>
	<g id="XMLID_494_">
		<path id="XMLID_812_" style="fill:#3E3D42;" d="M167.284,254.614c-8.284,0-15-6.716-15-15v-68.482c0-8.284,6.716-15,15-15
			s15,6.716,15,15v68.482C182.284,247.898,175.568,254.614,167.284,254.614z"/>
	</g>
</g>
<g>
</g>
<g>
</g>
<g>
</g>
<g>
</g>
<g>
</g>
<g>
</g>
<g>
</g>
<g>
</g>
<g>
</g>
<g>
</g>
<g>
</g>
<g>
</g>
<g>
</g>
<g>
</g>
<g>
</g>
</svg>
