<?xml version="1.0" encoding="iso-8859-1"?>
<!-- Generator: Adobe Illustrator 19.0.0, SVG Export Plug-In . SVG Version: 6.00 Build 0)  -->
<svg version="1.1" id="Layer_1" xmlns="http://www.w3.org/2000/svg" xmlns:xlink="http://www.w3.org/1999/xlink" x="0px" y="0px"
	 viewBox="0 0 456.537 456.537" style="enable-background:new 0 0 456.537 456.537;" xml:space="preserve">
<g id="XMLID_32_">
	<path id="XMLID_2080_" style="fill:#1A6FB0;" d="M269.955,312.217c-4.887,2.361-7.994,7.316-7.994,12.744v117.434
		c0,4.272,1.932,8.315,5.254,11c3.323,2.685,7.682,3.722,11.859,2.828c88.492-18.931,158.209-88.654,177.146-177.147
		c0.893-4.175-0.149-8.53-2.832-11.851s-6.726-5.264-10.996-5.264H324.955c-5.425,0-10.386,3.111-12.745,7.997
		C303.317,288.382,288.376,303.319,269.955,312.217z"/>
	<path id="XMLID_2077_" style="fill:#FFA733;" d="M182.488,456.222c4.175,0.893,8.529-0.149,11.85-2.833
		c3.321-2.683,5.263-6.726,5.263-10.996V324.95c0-5.429-3.113-10.383-8.002-12.743c-30.3-14.624-51.29-45.582-51.29-81.427
		c0-49.883,40.588-90.472,90.479-90.472c35.837,0,66.795,20.989,81.419,51.289c2.358,4.886,7.317,8.002,12.743,8.002h117.444
		c4.272,0,8.315-1.931,11-5.254s3.722-7.681,2.829-11.859C433.957,78.37,341.461,0,230.789,0C103.534,0,0,103.527,0,230.781
		C0,341.447,78.377,433.949,182.488,456.222z"/>
	<path id="XMLID_1803_" style="fill:#EE8700;" d="M68.911,66.462C26.401,108.344,0,166.534,0,230.782
		c0,110.665,78.377,203.167,182.488,225.44c4.175,0.893,8.529-0.149,11.85-2.833c3.321-2.683,5.263-6.726,5.263-10.996V324.95
		c0-5.429-3.113-10.383-8.002-12.743c-30.3-14.624-51.289-45.582-51.29-81.427c0-25.563,10.676-48.667,27.784-65.137L68.911,66.462z
		"/>
</g>
<g>
</g>
<g>
</g>
<g>
</g>
<g>
</g>
<g>
</g>
<g>
</g>
<g>
</g>
<g>
</g>
<g>
</g>
<g>
</g>
<g>
</g>
<g>
</g>
<g>
</g>
<g>
</g>
<g>
</g>
</svg>
