<?xml version="1.0" encoding="iso-8859-1"?>
<!-- Generator: Adobe Illustrator 19.0.0, SVG Export Plug-In . SVG Version: 6.00 Build 0)  -->
<svg version="1.1" id="Layer_1" xmlns="http://www.w3.org/2000/svg" xmlns:xlink="http://www.w3.org/1999/xlink" x="0px" y="0px"
	 viewBox="0 0 456.832 456.832" style="enable-background:new 0 0 456.832 456.832;" xml:space="preserve">
<g id="XMLID_49_">
	<g id="XMLID_50_">
		<path id="XMLID_51_" style="fill:#914F00;" d="M350.111,219.914c0,13.808-11.193,25-25,25H131.722c-13.807,0-25-11.192-25-25
			V74.536c0-37.344,30.274-67.618,67.618-67.618h108.152c37.344,0,67.618,30.274,67.618,67.618v145.378H350.111z M156.722,194.914
			h143.389V74.536c0-9.715-7.903-17.618-17.618-17.618H174.34c-9.715,0-17.618,7.903-17.618,17.618V194.914z"/>
	</g>
	<path id="XMLID_55_" style="fill:#663A00;" d="M282.492,6.918h-51.223v50h51.223c9.715,0,17.618,7.903,17.618,17.618v120.378
		h-68.841v50h93.841c13.807,0,25-11.192,25-25V74.536C350.111,37.191,319.837,6.918,282.492,6.918z"/>
	<path id="XMLID_1144_" style="fill:#AA6100;" d="M456.832,421.568c0,15.655-12.691,28.346-28.346,28.346H28.346
		C12.691,449.914,0,437.223,0,421.568V150.273c0-15.655,12.691-28.346,28.346-28.346h400.139c15.655,0,28.346,12.691,28.346,28.346
		L456.832,421.568L456.832,421.568z"/>
	<path id="XMLID_56_" style="fill:#914F00;" d="M428.486,121.927H231.269v327.987h197.217c15.655,0,28.346-12.691,28.346-28.346
		V150.273C456.832,134.618,444.141,121.927,428.486,121.927z"/>
	<g id="XMLID_88_">
		<rect id="XMLID_472_" y="257.149" style="fill:#663A00;" width="455.889" height="30"/>
	</g>
	<rect id="XMLID_2021_" x="97.397" y="221.226" style="fill:#663A00;" width="68.65" height="99.225"/>
	<path id="XMLID_89_" style="fill:#FF9811;" d="M166.046,335.451h-68.65c-8.284,0-15-6.716-15-15v-99.226c0-8.284,6.716-15,15-15
		h68.65c8.284,0,15,6.716,15,15v99.226C181.046,328.735,174.331,335.451,166.046,335.451z M112.397,305.451h38.65v-69.226h-38.65
		C112.397,236.225,112.397,305.451,112.397,305.451z"/>
	<g id="XMLID_90_">
		<rect id="XMLID_2017_" x="290.786" y="221.226" style="fill:#663A00;" width="68.65" height="99.225"/>
		<path id="XMLID_475_" style="fill:#FF9811;" d="M359.435,335.451h-68.649c-8.284,0-15-6.716-15-15v-99.226c0-8.284,6.716-15,15-15
			h68.649c8.284,0,15,6.716,15,15v99.226C374.435,328.735,367.719,335.451,359.435,335.451z M305.786,305.451h38.649v-69.226
			h-38.649V305.451z"/>
	</g>
	<path id="XMLID_229_" style="fill:#EE8700;" d="M166.046,206.226h-34.325v30h19.325v69.226h-19.325v30h34.325
		c8.284,0,15-6.716,15-15v-99.226C181.046,212.941,174.331,206.226,166.046,206.226z"/>
	<path id="XMLID_839_" style="fill:#EE8700;" d="M359.773,206.225h-34.325v30h19.325v69.226h-19.325v30h34.325
		c8.284,0,15-6.716,15-15v-99.226C374.773,212.941,368.057,206.225,359.773,206.225z"/>
</g>
<g>
</g>
<g>
</g>
<g>
</g>
<g>
</g>
<g>
</g>
<g>
</g>
<g>
</g>
<g>
</g>
<g>
</g>
<g>
</g>
<g>
</g>
<g>
</g>
<g>
</g>
<g>
</g>
<g>
</g>
</svg>
