<?xml version="1.0" encoding="iso-8859-1"?>
<!-- Generator: Adobe Illustrator 19.0.0, SVG Export Plug-In . SVG Version: 6.00 Build 0)  -->
<svg version="1.1" id="Layer_1" xmlns="http://www.w3.org/2000/svg" xmlns:xlink="http://www.w3.org/1999/xlink" x="0px" y="0px"
	 viewBox="0 0 462.694 462.694" style="enable-background:new 0 0 462.694 462.694;" xml:space="preserve">
<g id="XMLID_1060_">
	<g id="XMLID_963_">
		<rect id="XMLID_964_" x="201.346" y="324.887" style="fill:#2D2D30;" width="60" height="84.282"/>
	</g>
	<g id="XMLID_965_">
		<rect id="XMLID_966_" x="230.932" y="324.887" style="fill:#1D1D1E;" width="30.414" height="84.282"/>
	</g>
	<path id="XMLID_1059_" style="fill:#11537F;" d="M287.592,417.156h-115.63v-32.43c0-6.131,4.97-11.101,11.101-11.101h93.428
		c6.131,0,11.101,4.97,11.101,11.101V417.156z"/>
	<g id="XMLID_967_">
		<path id="XMLID_968_" style="fill:#1A6FB0;" d="M231.348,0c-95.447,0-173.1,77.655-173.1,173.107
			c0,95.439,77.652,173.085,173.1,173.085s173.099-77.646,173.099-173.085C404.445,77.655,326.794,0,231.348,0z"/>
	</g>
	<path id="XMLID_969_" style="fill:#165C92;" d="M231.348,0c-0.139,0-0.276,0.005-0.415,0.005v346.181
		c0.139,0,0.276,0.005,0.415,0.005c95.447,0,173.099-77.646,173.099-173.085C404.445,77.655,326.794,0,231.348,0z"/>
	<g id="XMLID_971_">
		<path id="XMLID_972_" style="fill:#2D2D30;" d="M231.331,300.975c-55.354,0-100.388-45.041-100.388-100.403
			c0-55.37,45.033-100.417,100.388-100.417c55.371,0,100.418,45.047,100.418,100.417
			C331.749,255.934,286.702,300.975,231.331,300.975z"/>
	</g>
	<g id="XMLID_974_">
		<path id="XMLID_975_" style="fill:#3E3D42;" d="M231.331,278.496c-42.959,0-77.909-34.957-77.909-77.924
			c0-42.975,34.95-77.938,77.909-77.938c42.976,0,77.939,34.963,77.939,77.938C309.27,243.539,274.307,278.496,231.331,278.496z
			 M231.331,152.634c-26.417,0-47.909,21.505-47.909,47.938c0,26.425,21.492,47.924,47.909,47.924
			c26.434,0,47.939-21.499,47.939-47.924C279.27,174.139,257.765,152.634,231.331,152.634z"/>
	</g>
	<g id="XMLID_978_">
		<path id="XMLID_979_" style="fill:#1A6FB0;" d="M291.711,462.694h-120.73c-16.568,0-30-13.432-30-30s13.432-30,30-30H291.71
			c16.568,0,30,13.432,30,30C321.711,449.263,308.279,462.694,291.711,462.694z"/>
	</g>
	<path id="XMLID_980_" style="fill:#1D1D1E;" d="M231.346,100.155v200.819c55.364-0.008,100.403-45.045,100.403-100.403
		C331.749,145.207,286.71,100.163,231.346,100.155z"/>
	<path id="XMLID_981_" style="fill:#165C92;" d="M291.711,402.694h-60.365v60h60.365c16.568,0,30-13.432,30-30
		S308.279,402.694,291.711,402.694z"/>
	<path id="XMLID_982_" style="fill:#2D2D30;" d="M231.346,122.634v30c26.427,0.008,47.924,21.51,47.924,47.938
		c0,26.42-21.497,47.915-47.924,47.923v30c42.969-0.008,77.924-34.961,77.924-77.924
		C309.27,157.602,274.315,122.642,231.346,122.634z"/>
	<path id="XMLID_1062_" style="fill:#FFFFFF;" d="M218.335,214.296c0-12.369,10.027-22.396,22.396-22.396
		c3.104,0,6.06,0.632,8.748,1.773c-2.514-9.619-11.262-16.719-21.669-16.719c-12.369,0-22.396,10.027-22.396,22.396
		c0,9.265,5.626,17.216,13.649,20.623C218.589,218.16,218.335,216.258,218.335,214.296z"/>
</g>
<g>
</g>
<g>
</g>
<g>
</g>
<g>
</g>
<g>
</g>
<g>
</g>
<g>
</g>
<g>
</g>
<g>
</g>
<g>
</g>
<g>
</g>
<g>
</g>
<g>
</g>
<g>
</g>
<g>
</g>
</svg>
